<svg width="17" height="14" viewBox="0 0 17 14" fill="none" xmlns="http://www.w3.org/2000/svg">
<path d="M11.8184 0.317871H5.47492C2.74798 0.317871 0.529297 2.54335 0.529297 5.27811V7.64243C0.529297 8.22398 1.01581 8.69514 1.61631 8.69514H2.92543C2.99888 10.2327 3.72923 11.6655 4.96608 12.6732C6.02959 13.5399 7.34811 14.0008 8.70423 14.0008C9.07852 14.0008 9.45574 13.9655 9.83061 13.8944C12.4259 13.401 14.3373 11.2444 14.4907 8.69741C14.5424 8.69571 14.5964 8.69571 14.6499 8.69571H14.7539C14.8097 8.69571 14.8661 8.69684 14.9237 8.69798C14.9601 8.69855 14.9972 8.69912 15.0348 8.69969C15.0348 8.69855 15.0342 8.69741 15.0336 8.69571H15.677C16.2775 8.69571 16.764 8.22455 16.764 7.643V5.27868C16.764 2.54392 14.5453 0.319009 11.8184 0.319009V0.317871ZM3.80503 5.39135C3.54708 5.79138 3.38021 6.18173 3.21745 6.58916H2.70391V5.27754C2.70391 3.7036 3.94722 2.42328 5.47551 2.42328H11.819C13.3473 2.42328 14.5906 3.7036 14.5906 5.27754V6.58916H14.1787C13.768 5.33217 12.8173 4.20606 11.5604 3.51412C10.2637 2.79998 8.74654 2.60082 7.28876 2.95305C5.82923 3.30528 4.59179 4.17135 3.80503 5.39135ZM12.2696 7.41994H10.6409C10.2772 6.71776 9.5427 6.27676 8.70129 6.27676C7.86047 6.27676 7.12659 6.71776 6.76288 7.41994H5.04129C5.25987 6.65858 5.72052 5.97745 6.34394 5.508C7.27642 4.80581 8.47273 4.55487 9.62614 4.82004C10.8671 5.10512 11.9224 6.08784 12.319 7.26232C12.299 7.31296 12.282 7.36531 12.2696 7.41937V7.41994ZM7.68714 11.9415C6.39917 11.5739 5.38032 10.5764 5.036 9.3444H6.74937C6.96325 9.78711 7.34635 10.0762 7.68773 10.2736V11.9415H7.68714ZM8.85113 8.50451C8.83761 8.52557 8.80118 8.5819 8.64724 8.56369C8.53031 8.54947 8.5168 8.43964 8.51621 8.39298C8.51621 8.34291 8.52855 8.22512 8.66134 8.20634C8.79531 8.18756 8.83056 8.23991 8.84584 8.2621C8.89108 8.32982 8.89343 8.43851 8.85054 8.50508L8.85113 8.50451ZM9.71604 11.9397V10.2776C10.0557 10.0864 10.4376 9.80076 10.6544 9.34497H12.3678C12.0258 10.5707 11.0069 11.5676 9.71604 11.9403V11.9397Z" fill="#FEFEFF"/>
</svg>
